<?xml version="1.0" encoding="UTF-8" standalone="no"?>
<!DOCTYPE svg PUBLIC "-//W3C//DTD SVG 1.1//EN"
 "http://www.w3.org/Graphics/SVG/1.1/DTD/svg11.dtd">
<!-- Generated by graphviz version 8.1.0 (20230707.0739)
 -->
<!-- Title: cytokine_cascade Pages: 1 -->
<svg width="1558pt" height="942pt"
 viewBox="0.00 0.00 1557.71 941.75" xmlns="http://www.w3.org/2000/svg" xmlns:xlink="http://www.w3.org/1999/xlink">
<g id="graph0" class="graph" transform="scale(1 1) rotate(0) translate(4 937.75)">
<title>cytokine_cascade</title>
<polygon fill="white" stroke="none" points="-4,4 -4,-937.75 1553.71,-937.75 1553.71,4 -4,4"/>
<!-- 0 -->
<g id="node1" class="node">
<title>0</title>
<ellipse fill="none" stroke="black" cx="207.1" cy="-456.75" rx="41.08" ry="18"/>
<text text-anchor="middle" x="207.1" y="-451.32" font-family="Times New Roman,serif" font-size="14.00">AdipoQ</text>
</g>
<!-- 1 -->
<g id="node2" class="node">
<title>1</title>
<ellipse fill="none" stroke="black" cx="278.1" cy="-281.25" rx="27" ry="18"/>
<text text-anchor="middle" x="278.1" y="-275.82" font-family="Times New Roman,serif" font-size="14.00">C3a</text>
</g>
<!-- 0&#45;&gt;1 -->
<g id="edge9" class="edge">
<title>0&#45;&gt;1</title>
<path fill="none" stroke="black" d="M214.68,-438.76C217.14,-433.07 219.82,-426.67 222.1,-420.75 233.9,-390.16 233.84,-381.4 246.1,-351 251.9,-336.65 259.12,-320.98 265.23,-308.23"/>
<polygon fill="black" stroke="black" points="268.64,-310.23 269.85,-299.71 262.34,-307.18 268.64,-310.23"/>
<text text-anchor="middle" x="262.6" y="-363.57" font-family="Times New Roman,serif" font-size="14.00">cDC2</text>
</g>
<!-- 49 -->
<g id="node50" class="node">
<title>49</title>
<ellipse fill="none" stroke="black" cx="168.1" cy="-369" rx="33.1" ry="18"/>
<text text-anchor="middle" x="168.1" y="-363.57" font-family="Times New Roman,serif" font-size="14.00">TSLP</text>
</g>
<!-- 0&#45;&gt;49 -->
<g id="edge2" class="edge">
<title>0&#45;&gt;49</title>
<path fill="none" stroke="black" d="M199.4,-438.81C193.95,-426.83 186.53,-410.52 180.29,-396.79"/>
<polygon fill="black" stroke="black" points="183.12,-395.56 175.79,-387.91 176.75,-398.46 183.12,-395.56"/>
<text text-anchor="middle" x="204.6" y="-407.45" font-family="Times New Roman,serif" font-size="14.00">BEC</text>
</g>
<!-- 46 -->
<g id="node47" class="node">
<title>46</title>
<ellipse fill="none" stroke="black" cx="688.1" cy="-105.75" rx="41.58" ry="18"/>
<text text-anchor="middle" x="688.1" y="-100.33" font-family="Times New Roman,serif" font-size="14.00">TGF&#45;β1</text>
</g>
<!-- 1&#45;&gt;46 -->
<g id="edge75" class="edge">
<title>1&#45;&gt;46</title>
<path fill="none" stroke="black" d="M290.09,-264.99C314.19,-235.54 371.75,-171.18 436.1,-141.75 470.73,-125.92 573,-115.54 636.11,-110.44"/>
<polygon fill="black" stroke="black" points="636.34,-113.86 646.03,-109.58 635.79,-106.88 636.34,-113.86"/>
<text text-anchor="middle" x="393.23" y="-188.07" font-family="Times New Roman,serif" font-size="14.00">Treg</text>
</g>
<!-- 2 -->
<g id="node3" class="node">
<title>2</title>
<ellipse fill="none" stroke="black" cx="1194.1" cy="-915.75" rx="27" ry="18"/>
<text text-anchor="middle" x="1194.1" y="-910.33" font-family="Times New Roman,serif" font-size="14.00">C5a</text>
</g>
<!-- 40 -->
<g id="node41" class="node">
<title>40</title>
<ellipse fill="none" stroke="black" cx="1194.1" cy="-828" rx="38.59" ry="18"/>
<text text-anchor="middle" x="1194.1" y="-822.58" font-family="Times New Roman,serif" font-size="14.00">LIGHT</text>
</g>
<!-- 2&#45;&gt;40 -->
<g id="edge22" class="edge">
<title>2&#45;&gt;40</title>
<path fill="none" stroke="black" d="M1194.1,-897.4C1194.1,-885.89 1194.1,-870.53 1194.1,-857.28"/>
<polygon fill="black" stroke="black" points="1197.6,-857.33 1194.1,-847.33 1190.6,-857.33 1197.6,-857.33"/>
<text text-anchor="middle" x="1207.98" y="-866.45" font-family="Times New Roman,serif" font-size="14.00">FRC</text>
</g>
<!-- 3 -->
<g id="node4" class="node">
<title>3</title>
<ellipse fill="none" stroke="black" cx="1023.1" cy="-18" rx="38.09" ry="18"/>
<text text-anchor="middle" x="1023.1" y="-12.57" font-family="Times New Roman,serif" font-size="14.00">CD30L</text>
</g>
<!-- 4 -->
<g id="node5" class="node">
<title>4</title>
<ellipse fill="none" stroke="black" cx="1291.1" cy="-915.75" rx="38.09" ry="18"/>
<text text-anchor="middle" x="1291.1" y="-910.33" font-family="Times New Roman,serif" font-size="14.00">CD40L</text>
</g>
<!-- 5 -->
<g id="node6" class="node">
<title>5</title>
<ellipse fill="none" stroke="black" cx="1291.1" cy="-828" rx="40.09" ry="18"/>
<text text-anchor="middle" x="1291.1" y="-822.58" font-family="Times New Roman,serif" font-size="14.00">Decorin</text>
</g>
<!-- 4&#45;&gt;5 -->
<g id="edge3" class="edge">
<title>4&#45;&gt;5</title>
<path fill="none" stroke="black" d="M1291.1,-897.4C1291.1,-885.89 1291.1,-870.53 1291.1,-857.28"/>
<polygon fill="black" stroke="black" points="1294.6,-857.33 1291.1,-847.33 1287.6,-857.33 1294.6,-857.33"/>
<text text-anchor="middle" x="1304.6" y="-866.45" font-family="Times New Roman,serif" font-size="14.00">BEC</text>
</g>
<!-- 6 -->
<g id="node7" class="node">
<title>6</title>
<ellipse fill="none" stroke="black" cx="1521.1" cy="-740.25" rx="28.61" ry="18"/>
<text text-anchor="middle" x="1521.1" y="-734.83" font-family="Times New Roman,serif" font-size="14.00">EGF</text>
</g>
<!-- 7 -->
<g id="node8" class="node">
<title>7</title>
<ellipse fill="none" stroke="black" cx="1380.1" cy="-105.75" rx="37.59" ry="18"/>
<text text-anchor="middle" x="1380.1" y="-100.33" font-family="Times New Roman,serif" font-size="14.00">FLT3L</text>
</g>
<!-- 8 -->
<g id="node9" class="node">
<title>8</title>
<ellipse fill="none" stroke="black" cx="232.1" cy="-740.25" rx="29.61" ry="18"/>
<text text-anchor="middle" x="232.1" y="-734.83" font-family="Times New Roman,serif" font-size="14.00">FasL</text>
</g>
<!-- 19 -->
<g id="node20" class="node">
<title>19</title>
<ellipse fill="none" stroke="black" cx="31.1" cy="-598.5" rx="31.1" ry="18"/>
<text text-anchor="middle" x="31.1" y="-593.08" font-family="Times New Roman,serif" font-size="14.00">IL&#45;13</text>
</g>
<!-- 8&#45;&gt;19 -->
<g id="edge1" class="edge">
<title>8&#45;&gt;19</title>
<path fill="none" stroke="black" d="M208.8,-728.8C202.51,-726.32 195.64,-723.92 189.1,-722.25 157.7,-714.23 67.3,-727.15 44.35,-704.25 24.62,-684.55 23.66,-651.28 26.13,-627.52"/>
<polygon fill="black" stroke="black" points="29.71,-628.09 27.55,-617.72 22.77,-627.18 29.71,-628.09"/>
<text text-anchor="middle" x="69.48" y="-690.95" font-family="Times New Roman,serif" font-size="14.00">Basophil</text>
</g>
<!-- 9 -->
<g id="node10" class="node">
<title>9</title>
<ellipse fill="none" stroke="black" cx="1073.1" cy="-740.25" rx="38.09" ry="18"/>
<text text-anchor="middle" x="1073.1" y="-734.83" font-family="Times New Roman,serif" font-size="14.00">G&#45;CSF</text>
</g>
<!-- 10 -->
<g id="node11" class="node">
<title>10</title>
<ellipse fill="none" stroke="black" cx="811.1" cy="-456.75" rx="36.09" ry="18"/>
<text text-anchor="middle" x="811.1" y="-451.32" font-family="Times New Roman,serif" font-size="14.00">GDNF</text>
</g>
<!-- 47 -->
<g id="node48" class="node">
<title>47</title>
<ellipse fill="none" stroke="black" cx="786.1" cy="-369" rx="36.59" ry="18"/>
<text text-anchor="middle" x="786.1" y="-363.57" font-family="Times New Roman,serif" font-size="14.00">TNF&#45;α</text>
</g>
<!-- 10&#45;&gt;47 -->
<g id="edge25" class="edge">
<title>10&#45;&gt;47</title>
<path fill="none" stroke="black" d="M806.16,-438.81C802.73,-427.02 798.07,-411.05 794.11,-397.46"/>
<polygon fill="black" stroke="black" points="797.28,-396.82 791.12,-388.2 790.56,-398.78 797.28,-396.82"/>
<text text-anchor="middle" x="812.35" y="-407.45" font-family="Times New Roman,serif" font-size="14.00">ILC</text>
</g>
<!-- 11 -->
<g id="node12" class="node">
<title>11</title>
<ellipse fill="none" stroke="black" cx="747.1" cy="-193.5" rx="46.07" ry="18"/>
<text text-anchor="middle" x="747.1" y="-188.07" font-family="Times New Roman,serif" font-size="14.00">GM&#45;CSF</text>
</g>
<!-- 42 -->
<g id="node43" class="node">
<title>42</title>
<ellipse fill="none" stroke="black" cx="1083.1" cy="-105.75" rx="31.1" ry="18"/>
<text text-anchor="middle" x="1083.1" y="-100.33" font-family="Times New Roman,serif" font-size="14.00">OSM</text>
</g>
<!-- 11&#45;&gt;42 -->
<g id="edge52" class="edge">
<title>11&#45;&gt;42</title>
<path fill="none" stroke="black" d="M778.89,-179.99C793.57,-173.82 811.04,-165.9 826.1,-157.5 836.92,-151.47 837.45,-145.96 849.1,-141.75 930.55,-112.34 959.14,-144.94 1043.1,-123.75 1045.28,-123.2 1047.48,-122.55 1049.69,-121.83"/>
<polygon fill="black" stroke="black" points="1050.68,-124.83 1058.83,-118.06 1048.24,-118.26 1050.68,-124.83"/>
<text text-anchor="middle" x="877.6" y="-144.2" font-family="Times New Roman,serif" font-size="14.00">Monocyte</text>
</g>
<!-- 11&#45;&gt;46 -->
<g id="edge51" class="edge">
<title>11&#45;&gt;46</title>
<path fill="none" stroke="black" d="M714.68,-180.37C704.72,-174.95 694.87,-167.48 689.1,-157.5 685.2,-150.73 683.87,-142.56 683.82,-134.78"/>
<polygon fill="black" stroke="black" points="687.37,-135.04 684.49,-124.85 680.38,-134.61 687.37,-135.04"/>
<text text-anchor="middle" x="717.6" y="-144.2" font-family="Times New Roman,serif" font-size="14.00">Monocyte</text>
</g>
<!-- 12 -->
<g id="node13" class="node">
<title>12</title>
<ellipse fill="none" stroke="black" cx="293.1" cy="-915.75" rx="38.09" ry="18"/>
<text text-anchor="middle" x="293.1" y="-910.33" font-family="Times New Roman,serif" font-size="14.00">IFN&#45;α1</text>
</g>
<!-- 20 -->
<g id="node21" class="node">
<title>20</title>
<ellipse fill="none" stroke="black" cx="436.1" cy="-828" rx="31.1" ry="18"/>
<text text-anchor="middle" x="436.1" y="-822.58" font-family="Times New Roman,serif" font-size="14.00">IL&#45;15</text>
</g>
<!-- 12&#45;&gt;20 -->
<g id="edge50" class="edge">
<title>12&#45;&gt;20</title>
<path fill="none" stroke="black" d="M316.08,-900.97C340.41,-886.38 378.93,-863.28 405.75,-847.2"/>
<polygon fill="black" stroke="black" points="407.27,-849.77 414.05,-841.63 403.67,-843.77 407.27,-849.77"/>
<text text-anchor="middle" x="398.73" y="-866.45" font-family="Times New Roman,serif" font-size="14.00">MigDC</text>
</g>
<!-- 24 -->
<g id="node25" class="node">
<title>24</title>
<ellipse fill="none" stroke="black" cx="588.1" cy="-740.25" rx="31.1" ry="18"/>
<text text-anchor="middle" x="588.1" y="-734.83" font-family="Times New Roman,serif" font-size="14.00">IL&#45;18</text>
</g>
<!-- 12&#45;&gt;24 -->
<g id="edge10" class="edge">
<title>12&#45;&gt;24</title>
<path fill="none" stroke="black" d="M289.1,-897.59C284.87,-874.72 281.38,-834.34 302.35,-810 333.9,-773.4 475.13,-753.33 546.52,-745.36"/>
<polygon fill="black" stroke="black" points="546.78,-748.74 556.35,-744.18 546.03,-741.78 546.78,-748.74"/>
<text text-anchor="middle" x="349.98" y="-822.58" font-family="Times New Roman,serif" font-size="14.00">cDC2,Monocyte</text>
</g>
<!-- 48 -->
<g id="node49" class="node">
<title>48</title>
<ellipse fill="none" stroke="black" cx="136.1" cy="-828" rx="38.09" ry="18"/>
<text text-anchor="middle" x="136.1" y="-822.58" font-family="Times New Roman,serif" font-size="14.00">TRAIL</text>
</g>
<!-- 12&#45;&gt;48 -->
<g id="edge26" class="edge">
<title>12&#45;&gt;48</title>
<path fill="none" stroke="black" d="M261.96,-905.15C244.04,-899.03 221.42,-890.28 202.6,-879.75 194.45,-875.18 177.68,-862.38 163.02,-850.77"/>
<polygon fill="black" stroke="black" points="165.72,-847.65 155.72,-844.15 161.35,-853.12 165.72,-847.65"/>
<text text-anchor="middle" x="241.35" y="-866.45" font-family="Times New Roman,serif" font-size="14.00">ILC,Mast cell</text>
</g>
<!-- 13 -->
<g id="node14" class="node">
<title>13</title>
<ellipse fill="none" stroke="black" cx="673.1" cy="-915.75" rx="33.6" ry="18"/>
<text text-anchor="middle" x="673.1" y="-910.33" font-family="Times New Roman,serif" font-size="14.00">IFN&#45;β</text>
</g>
<!-- 13&#45;&gt;20 -->
<g id="edge5" class="edge">
<title>13&#45;&gt;20</title>
<path fill="none" stroke="black" d="M641.02,-909.67C610.91,-904.29 564.98,-894.53 527.1,-879.75 523.91,-878.5 492.49,-860.88 467.45,-846.75"/>
<polygon fill="black" stroke="black" points="469.33,-843.22 458.9,-841.35 465.88,-849.32 469.33,-843.22"/>
<text text-anchor="middle" x="593.1" y="-866.45" font-family="Times New Roman,serif" font-size="14.00">cDC1,Mast cell,MigDC</text>
</g>
<!-- 13&#45;&gt;24 -->
<g id="edge11" class="edge">
<title>13&#45;&gt;24</title>
<path fill="none" stroke="black" d="M671.77,-897.67C668.8,-869.66 659.5,-813.37 631.1,-776.25 626.88,-770.73 621.62,-765.54 616.25,-760.93"/>
<polygon fill="black" stroke="black" points="618.83,-757.72 608.83,-754.21 614.46,-763.19 618.83,-757.72"/>
<text text-anchor="middle" x="709.98" y="-822.58" font-family="Times New Roman,serif" font-size="14.00">cDC2,Monocyte</text>
</g>
<!-- 32 -->
<g id="node33" class="node">
<title>32</title>
<ellipse fill="none" stroke="black" cx="778.1" cy="-544.5" rx="31.1" ry="18"/>
<text text-anchor="middle" x="778.1" y="-539.08" font-family="Times New Roman,serif" font-size="14.00">IL&#45;30</text>
</g>
<!-- 13&#45;&gt;32 -->
<g id="edge4" class="edge">
<title>13&#45;&gt;32</title>
<path fill="none" stroke="black" d="M706.03,-911.43C778.64,-903.19 946.1,-878.8 946.1,-829 946.1,-829 946.1,-829 946.1,-651.5 946.1,-591.38 868.21,-563.99 818.5,-552.63"/>
<polygon fill="black" stroke="black" points="819.26,-549 808.75,-550.32 817.79,-555.84 819.26,-549"/>
<text text-anchor="middle" x="962.6" y="-734.83" font-family="Times New Roman,serif" font-size="14.00">cDC1</text>
</g>
<!-- 14 -->
<g id="node15" class="node">
<title>14</title>
<ellipse fill="none" stroke="black" cx="778.1" cy="-652.5" rx="32.6" ry="18"/>
<text text-anchor="middle" x="778.1" y="-647.08" font-family="Times New Roman,serif" font-size="14.00">IFN&#45;γ</text>
</g>
<!-- 14&#45;&gt;32 -->
<g id="edge53" class="edge">
<title>14&#45;&gt;32</title>
<path fill="none" stroke="black" d="M778.1,-634.47C778.1,-618.11 778.1,-593.09 778.1,-573.74"/>
<polygon fill="black" stroke="black" points="781.6,-573.84 778.1,-563.84 774.6,-573.84 781.6,-573.84"/>
<text text-anchor="middle" x="806.6" y="-593.08" font-family="Times New Roman,serif" font-size="14.00">Monocyte</text>
</g>
<!-- 15 -->
<g id="node16" class="node">
<title>15</title>
<ellipse fill="none" stroke="black" cx="436.1" cy="-915.75" rx="28.61" ry="18"/>
<text text-anchor="middle" x="436.1" y="-910.33" font-family="Times New Roman,serif" font-size="14.00">IFN&#45;</text>
</g>
<!-- 15&#45;&gt;20 -->
<g id="edge60" class="edge">
<title>15&#45;&gt;20</title>
<path fill="none" stroke="black" d="M436.1,-897.4C436.1,-885.89 436.1,-870.53 436.1,-857.28"/>
<polygon fill="black" stroke="black" points="439.6,-857.33 436.1,-847.33 432.6,-857.33 439.6,-857.33"/>
<text text-anchor="middle" x="465.35" y="-866.45" font-family="Times New Roman,serif" font-size="14.00">Neutrophil</text>
</g>
<!-- 16 -->
<g id="node17" class="node">
<title>16</title>
<ellipse fill="none" stroke="black" cx="688.1" cy="-18" rx="33.6" ry="18"/>
<text text-anchor="middle" x="688.1" y="-12.57" font-family="Times New Roman,serif" font-size="14.00">IGF&#45;1</text>
</g>
<!-- 17 -->
<g id="node18" class="node">
<title>17</title>
<ellipse fill="none" stroke="black" cx="852.1" cy="-828" rx="31.1" ry="18"/>
<text text-anchor="middle" x="852.1" y="-822.58" font-family="Times New Roman,serif" font-size="14.00">IL&#45;10</text>
</g>
<!-- 17&#45;&gt;24 -->
<g id="edge41" class="edge">
<title>17&#45;&gt;24</title>
<path fill="none" stroke="black" d="M825.34,-818.31C777.9,-802.9 679.01,-770.78 625.1,-753.27"/>
<polygon fill="black" stroke="black" points="626.53,-749.73 615.94,-749.97 624.37,-756.39 626.53,-749.73"/>
<text text-anchor="middle" x="778.98" y="-778.7" font-family="Times New Roman,serif" font-size="14.00">Macrophage</text>
</g>
<!-- 26 -->
<g id="node27" class="node">
<title>26</title>
<ellipse fill="none" stroke="black" cx="1026.1" cy="-281.25" rx="31.6" ry="18"/>
<text text-anchor="middle" x="1026.1" y="-275.82" font-family="Times New Roman,serif" font-size="14.00">IL&#45;1β</text>
</g>
<!-- 17&#45;&gt;26 -->
<g id="edge54" class="edge">
<title>17&#45;&gt;26</title>
<path fill="none" stroke="black" d="M869.66,-812.97C875.81,-807.13 882.16,-799.88 886.1,-792 939.56,-685.16 895.15,-641.33 928.1,-526.5 935,-502.48 940.63,-497.87 950.1,-474.75 974.17,-416.05 1001.19,-346.75 1015.64,-309.39"/>
<polygon fill="black" stroke="black" points="1019.2,-310.89 1019.54,-300.3 1012.67,-308.37 1019.2,-310.89"/>
<text text-anchor="middle" x="956.6" y="-539.08" font-family="Times New Roman,serif" font-size="14.00">Monocyte</text>
</g>
<!-- 18 -->
<g id="node19" class="node">
<title>18</title>
<ellipse fill="none" stroke="black" cx="747.1" cy="-740.25" rx="31.1" ry="18"/>
<text text-anchor="middle" x="747.1" y="-734.83" font-family="Times New Roman,serif" font-size="14.00">IL&#45;12</text>
</g>
<!-- 18&#45;&gt;14 -->
<g id="edge68" class="edge">
<title>18&#45;&gt;14</title>
<path fill="none" stroke="black" d="M761.89,-724.08C766.62,-718.32 771.34,-711.41 774.1,-704.25 776.81,-697.24 778.15,-689.29 778.75,-681.8"/>
<polygon fill="black" stroke="black" points="782.28,-682.08 779.16,-671.96 775.28,-681.82 782.28,-682.08"/>
<text text-anchor="middle" x="799.1" y="-690.95" font-family="Times New Roman,serif" font-size="14.00">NK cell</text>
</g>
<!-- 18&#45;&gt;46 -->
<g id="edge69" class="edge">
<title>18&#45;&gt;46</title>
<path fill="none" stroke="black" d="M729.03,-725.31C722.69,-719.48 716.16,-712.21 712.1,-704.25 675.83,-632.98 697.61,-605.32 684.1,-526.5 672.15,-456.78 655.1,-440.74 655.1,-370 655.1,-370 655.1,-370 655.1,-192.5 655.1,-171.5 663.83,-149.41 672.31,-132.92"/>
<polygon fill="black" stroke="black" points="675.77,-134.89 677.48,-124.43 669.62,-131.54 675.77,-134.89"/>
<text text-anchor="middle" x="680.1" y="-407.45" font-family="Times New Roman,serif" font-size="14.00">NK cell</text>
</g>
<!-- 19&#45;&gt;1 -->
<g id="edge61" class="edge">
<title>19&#45;&gt;1</title>
<path fill="none" stroke="black" d="M27.92,-580.25C24.67,-561.11 20.1,-529.27 20.1,-501.63 20.1,-501.63 20.1,-501.63 20.1,-368 20.1,-322.08 169.17,-296.42 240.69,-286.76"/>
<polygon fill="black" stroke="black" points="241.01,-290.11 250.47,-285.34 240.09,-283.17 241.01,-290.11"/>
<text text-anchor="middle" x="49.35" y="-451.32" font-family="Times New Roman,serif" font-size="14.00">Neutrophil</text>
</g>
<!-- 20&#45;&gt;8 -->
<g id="edge70" class="edge">
<title>20&#45;&gt;8</title>
<path fill="none" stroke="black" d="M411.5,-816.66C375.23,-801.41 307.3,-772.86 266.24,-755.6"/>
<polygon fill="black" stroke="black" points="267.74,-752.01 257.17,-751.36 265.03,-758.47 267.74,-752.01"/>
<text text-anchor="middle" x="374.1" y="-778.7" font-family="Times New Roman,serif" font-size="14.00">NK cell</text>
</g>
<!-- 20&#45;&gt;20 -->
<g id="edge43" class="edge">
<title>20&#45;&gt;20</title>
<path fill="none" stroke="black" d="M464.36,-836.18C475.7,-836.64 485.21,-833.91 485.21,-828 485.21,-824.12 481.11,-821.61 475.09,-820.48"/>
<polygon fill="black" stroke="black" points="475.56,-816.94 465.36,-819.82 475.13,-823.93 475.56,-816.94"/>
<text text-anchor="middle" x="510.33" y="-822.58" font-family="Times New Roman,serif" font-size="14.00">Mast cell</text>
</g>
<!-- 20&#45;&gt;24 -->
<g id="edge42" class="edge">
<title>20&#45;&gt;24</title>
<path fill="none" stroke="black" d="M457.88,-814.71C483.84,-800.07 527.42,-775.49 556.94,-758.83"/>
<polygon fill="black" stroke="black" points="558.38,-761.48 565.37,-753.51 554.94,-755.38 558.38,-761.48"/>
<text text-anchor="middle" x="551.23" y="-778.7" font-family="Times New Roman,serif" font-size="14.00">Mast cell</text>
</g>
<!-- 21 -->
<g id="node22" class="node">
<title>21</title>
<ellipse fill="none" stroke="black" cx="207.1" cy="-544.5" rx="37.09" ry="18"/>
<text text-anchor="middle" x="207.1" y="-539.08" font-family="Times New Roman,serif" font-size="14.00">IL&#45;17B</text>
</g>
<!-- 21&#45;&gt;0 -->
<g id="edge18" class="edge">
<title>21&#45;&gt;0</title>
<path fill="none" stroke="black" d="M207.1,-526.15C207.1,-514.64 207.1,-499.28 207.1,-486.03"/>
<polygon fill="black" stroke="black" points="210.6,-486.08 207.1,-476.08 203.6,-486.08 210.6,-486.08"/>
<text text-anchor="middle" x="224.35" y="-495.2" font-family="Times New Roman,serif" font-size="14.00">eTAC</text>
</g>
<!-- 22 -->
<g id="node23" class="node">
<title>22</title>
<ellipse fill="none" stroke="black" cx="903.1" cy="-456.75" rx="37.59" ry="18"/>
<text text-anchor="middle" x="903.1" y="-451.32" font-family="Times New Roman,serif" font-size="14.00">IL&#45;17C</text>
</g>
<!-- 22&#45;&gt;47 -->
<g id="edge55" class="edge">
<title>22&#45;&gt;47</title>
<path fill="none" stroke="black" d="M883.26,-441.2C864.32,-427.32 835.59,-406.27 814.29,-390.65"/>
<polygon fill="black" stroke="black" points="816.79,-387.42 806.66,-384.33 812.66,-393.07 816.79,-387.42"/>
<text text-anchor="middle" x="883.6" y="-407.45" font-family="Times New Roman,serif" font-size="14.00">Monocyte</text>
</g>
<!-- 23 -->
<g id="node24" class="node">
<title>23</title>
<ellipse fill="none" stroke="black" cx="996.1" cy="-105.75" rx="37.59" ry="18"/>
<text text-anchor="middle" x="996.1" y="-100.33" font-family="Times New Roman,serif" font-size="14.00">IL&#45;17D</text>
</g>
<!-- 23&#45;&gt;3 -->
<g id="edge15" class="edge">
<title>23&#45;&gt;3</title>
<path fill="none" stroke="black" d="M1001.44,-87.81C1005.15,-76.02 1010.18,-60.05 1014.46,-46.46"/>
<polygon fill="black" stroke="black" points="1018.02,-47.79 1017.69,-37.2 1011.35,-45.69 1018.02,-47.79"/>
<text text-anchor="middle" x="1027.85" y="-56.45" font-family="Times New Roman,serif" font-size="14.00">Other</text>
</g>
<!-- 24&#45;&gt;1 -->
<g id="edge12" class="edge">
<title>24&#45;&gt;1</title>
<path fill="none" stroke="black" d="M557.28,-737.03C451.12,-729 107.1,-699.41 107.1,-653.5 107.1,-653.5 107.1,-653.5 107.1,-368 107.1,-308.87 189.81,-290.51 240.18,-284.81"/>
<polygon fill="black" stroke="black" points="240.41,-288.21 250.01,-283.73 239.71,-281.24 240.41,-288.21"/>
<text text-anchor="middle" x="123.6" y="-495.2" font-family="Times New Roman,serif" font-size="14.00">cDC2</text>
</g>
<!-- 24&#45;&gt;11 -->
<g id="edge71" class="edge">
<title>24&#45;&gt;11</title>
<path fill="none" stroke="black" d="M580.83,-722.52C574.09,-705.49 565.1,-678.16 565.1,-653.5 565.1,-653.5 565.1,-653.5 565.1,-499.63 565.1,-399.39 665.76,-419.09 717.1,-333 737.57,-298.68 744.14,-252.15 746.21,-222.72"/>
<polygon fill="black" stroke="black" points="749.75,-223.16 746.82,-212.98 742.76,-222.76 749.75,-223.16"/>
<text text-anchor="middle" x="606.1" y="-451.32" font-family="Times New Roman,serif" font-size="14.00">NK cell</text>
</g>
<!-- 24&#45;&gt;14 -->
<g id="edge72" class="edge">
<title>24&#45;&gt;14</title>
<path fill="none" stroke="black" d="M612.17,-728.39C645.44,-713.37 705.69,-686.18 743.71,-669.02"/>
<polygon fill="black" stroke="black" points="744.66,-671.98 752.33,-664.68 741.78,-665.6 744.66,-671.98"/>
<text text-anchor="middle" x="722.1" y="-690.95" font-family="Times New Roman,serif" font-size="14.00">NK cell</text>
</g>
<!-- 24&#45;&gt;46 -->
<g id="edge73" class="edge">
<title>24&#45;&gt;46</title>
<path fill="none" stroke="black" d="M558.16,-734.35C517.57,-725.8 450.1,-703.99 450.1,-653.5 450.1,-653.5 450.1,-653.5 450.1,-192.5 450.1,-152.84 568.54,-126.46 638.31,-114.37"/>
<polygon fill="black" stroke="black" points="638.79,-117.66 648.07,-112.55 637.63,-110.76 638.79,-117.66"/>
<text text-anchor="middle" x="471.1" y="-407.45" font-family="Times New Roman,serif" font-size="14.00">NK cell</text>
</g>
<!-- 24&#45;&gt;47 -->
<g id="edge62" class="edge">
<title>24&#45;&gt;47</title>
<path fill="none" stroke="black" d="M588.43,-721.92C589.71,-684.61 595.9,-594.56 625.6,-526.5 654.33,-460.69 674.42,-447.77 732.1,-405 739.17,-399.76 747,-394.43 754.45,-389.57"/>
<polygon fill="black" stroke="black" points="756.08,-392.04 762.61,-383.69 752.3,-386.15 756.08,-392.04"/>
<text text-anchor="middle" x="655.35" y="-539.08" font-family="Times New Roman,serif" font-size="14.00">Neutrophil</text>
</g>
<!-- 25 -->
<g id="node26" class="node">
<title>25</title>
<ellipse fill="none" stroke="black" cx="1106.1" cy="-828" rx="31.6" ry="18"/>
<text text-anchor="middle" x="1106.1" y="-822.58" font-family="Times New Roman,serif" font-size="14.00">IL&#45;1α</text>
</g>
<!-- 25&#45;&gt;6 -->
<g id="edge19" class="edge">
<title>25&#45;&gt;6</title>
<path fill="none" stroke="black" d="M1129.34,-815.53C1134.72,-813.32 1140.52,-811.3 1146.1,-810 1218.08,-793.3 1411.93,-824.87 1478.1,-792 1489.39,-786.39 1498.87,-776.35 1506.03,-766.66"/>
<polygon fill="black" stroke="black" points="1509.43,-768.88 1512.17,-758.64 1503.65,-764.94 1509.43,-768.88"/>
<text text-anchor="middle" x="1514.35" y="-778.7" font-family="Times New Roman,serif" font-size="14.00">eTAC</text>
</g>
<!-- 25&#45;&gt;9 -->
<g id="edge39" class="edge">
<title>25&#45;&gt;9</title>
<path fill="none" stroke="black" d="M1099.58,-810.06C1095.05,-798.27 1088.9,-782.3 1083.67,-768.71"/>
<polygon fill="black" stroke="black" points="1086.58,-767.53 1079.72,-759.45 1080.05,-770.04 1086.58,-767.53"/>
<text text-anchor="middle" x="1106.23" y="-778.7" font-family="Times New Roman,serif" font-size="14.00">LEC</text>
</g>
<!-- 25&#45;&gt;24 -->
<g id="edge6" class="edge">
<title>25&#45;&gt;24</title>
<path fill="none" stroke="black" d="M1076.39,-821.62C1023.78,-812.14 910.75,-791.96 815.1,-776.25 750.04,-765.56 674.31,-754.08 628.85,-747.29"/>
<polygon fill="black" stroke="black" points="629.65,-743.72 619.24,-745.7 628.62,-750.64 629.65,-743.72"/>
<text text-anchor="middle" x="920.6" y="-778.7" font-family="Times New Roman,serif" font-size="14.00">cDC1</text>
</g>
<!-- 25&#45;&gt;26 -->
<g id="edge16" class="edge">
<title>25&#45;&gt;26</title>
<path fill="none" stroke="black" d="M1116.02,-810.48C1118.9,-804.82 1121.65,-798.32 1123.1,-792 1125.78,-780.38 1124.89,-758.03 1120.1,-722.25 1098.96,-564.2 1051.77,-378.43 1033.51,-309.65"/>
<polygon fill="black" stroke="black" points="1036.7,-309.03 1030.74,-300.28 1029.94,-310.84 1036.7,-309.03"/>
<text text-anchor="middle" x="1139.23" y="-539.08" font-family="Times New Roman,serif" font-size="14.00">Other,Monocyte</text>
</g>
<!-- 43 -->
<g id="node44" class="node">
<title>43</title>
<ellipse fill="none" stroke="black" cx="938.1" cy="-281.25" rx="38.59" ry="18"/>
<text text-anchor="middle" x="938.1" y="-275.82" font-family="Times New Roman,serif" font-size="14.00">OX40L</text>
</g>
<!-- 25&#45;&gt;43 -->
<g id="edge28" class="edge">
<title>25&#45;&gt;43</title>
<path fill="none" stroke="black" d="M1079.83,-817.45C1050.5,-804.89 1007.1,-779.79 1007.1,-741.25 1007.1,-741.25 1007.1,-741.25 1007.1,-499.63 1007.1,-427.87 972.53,-348.77 952.33,-308.69"/>
<polygon fill="black" stroke="black" points="955.1,-307.43 947.41,-300.14 948.87,-310.63 955.1,-307.43"/>
<text text-anchor="middle" x="1018.35" y="-539.08" font-family="Times New Roman,serif" font-size="14.00">ILC</text>
</g>
<!-- 51 -->
<g id="node52" class="node">
<title>51</title>
<ellipse fill="none" stroke="black" cx="1469.1" cy="-281.25" rx="35.1" ry="18"/>
<text text-anchor="middle" x="1469.1" y="-275.82" font-family="Times New Roman,serif" font-size="14.00">VEGF</text>
</g>
<!-- 25&#45;&gt;51 -->
<g id="edge27" class="edge">
<title>25&#45;&gt;51</title>
<path fill="none" stroke="black" d="M1129.94,-816C1135.19,-813.82 1140.78,-811.69 1146.1,-810 1215.01,-788.12 1464.1,-813.55 1464.1,-741.25 1464.1,-741.25 1464.1,-741.25 1464.1,-368 1464.1,-348.73 1465.38,-327.08 1466.64,-310.35"/>
<polygon fill="black" stroke="black" points="1470.19,-310.89 1467.49,-300.64 1463.21,-310.33 1470.19,-310.89"/>
<text text-anchor="middle" x="1475.35" y="-539.08" font-family="Times New Roman,serif" font-size="14.00">ILC</text>
</g>
<!-- 26&#45;&gt;11 -->
<g id="edge29" class="edge">
<title>26&#45;&gt;11</title>
<path fill="none" stroke="black" d="M1001.75,-269.34C996.63,-267.21 991.22,-265.07 986.1,-263.25 921.23,-240.23 844.45,-219.22 795.77,-206.64"/>
<polygon fill="black" stroke="black" points="796.78,-203.03 786.22,-203.93 795.04,-209.81 796.78,-203.03"/>
<text text-anchor="middle" x="939.35" y="-231.95" font-family="Times New Roman,serif" font-size="14.00">ILC</text>
</g>
<!-- 26&#45;&gt;26 -->
<g id="edge7" class="edge">
<title>26&#45;&gt;26</title>
<path fill="none" stroke="black" d="M1054.65,-289.43C1066.1,-289.89 1075.71,-287.16 1075.71,-281.25 1075.71,-277.37 1071.57,-274.86 1065.49,-273.73"/>
<polygon fill="black" stroke="black" points="1065.84,-270.18 1055.65,-273.07 1065.42,-277.17 1065.84,-270.18"/>
<text text-anchor="middle" x="1092.21" y="-275.82" font-family="Times New Roman,serif" font-size="14.00">cDC1</text>
</g>
<!-- 27 -->
<g id="node28" class="node">
<title>27</title>
<ellipse fill="none" stroke="black" cx="1087.1" cy="-193.5" rx="37.09" ry="18"/>
<text text-anchor="middle" x="1087.1" y="-188.07" font-family="Times New Roman,serif" font-size="14.00">IL&#45;1Ra</text>
</g>
<!-- 26&#45;&gt;27 -->
<g id="edge56" class="edge">
<title>26&#45;&gt;27</title>
<path fill="none" stroke="black" d="M1037.58,-264.12C1046.47,-251.62 1058.95,-234.08 1069.16,-219.73"/>
<polygon fill="black" stroke="black" points="1072.53,-222.03 1075.47,-211.85 1066.83,-217.97 1072.53,-222.03"/>
<text text-anchor="middle" x="1090.6" y="-231.95" font-family="Times New Roman,serif" font-size="14.00">Monocyte</text>
</g>
<!-- 26&#45;&gt;42 -->
<g id="edge63" class="edge">
<title>26&#45;&gt;42</title>
<path fill="none" stroke="black" d="M1056.75,-276.52C1078.11,-272.36 1105.78,-263.61 1123.1,-245.25 1154.79,-211.66 1153.84,-182.49 1132.1,-141.75 1128.32,-134.65 1122.37,-128.65 1115.91,-123.74"/>
<polygon fill="black" stroke="black" points="1118.19,-120.38 1107.94,-117.71 1114.29,-126.19 1118.19,-120.38"/>
<text text-anchor="middle" x="1176.35" y="-188.07" font-family="Times New Roman,serif" font-size="14.00">Neutrophil</text>
</g>
<!-- 28 -->
<g id="node29" class="node">
<title>28</title>
<ellipse fill="none" stroke="black" cx="1364.1" cy="-193.5" rx="27" ry="18"/>
<text text-anchor="middle" x="1364.1" y="-188.07" font-family="Times New Roman,serif" font-size="14.00">IL&#45;2</text>
</g>
<!-- 28&#45;&gt;7 -->
<g id="edge30" class="edge">
<title>28&#45;&gt;7</title>
<path fill="none" stroke="black" d="M1367.34,-175.15C1369.51,-163.52 1372.41,-147.97 1374.9,-134.63"/>
<polygon fill="black" stroke="black" points="1378.48,-135.55 1376.87,-125.08 1371.6,-134.27 1378.48,-135.55"/>
<text text-anchor="middle" x="1384.35" y="-144.2" font-family="Times New Roman,serif" font-size="14.00">ILC</text>
</g>
<!-- 39 -->
<g id="node40" class="node">
<title>39</title>
<ellipse fill="none" stroke="black" cx="1293.1" cy="-105.75" rx="27" ry="18"/>
<text text-anchor="middle" x="1293.1" y="-100.33" font-family="Times New Roman,serif" font-size="14.00">LIF</text>
</g>
<!-- 28&#45;&gt;39 -->
<g id="edge31" class="edge">
<title>28&#45;&gt;39</title>
<path fill="none" stroke="black" d="M1351.41,-177.17C1340.61,-164.12 1324.92,-145.17 1312.53,-130.22"/>
<polygon fill="black" stroke="black" points="1314.76,-128.42 1305.69,-122.95 1309.37,-132.88 1314.76,-128.42"/>
<text text-anchor="middle" x="1345.35" y="-144.2" font-family="Times New Roman,serif" font-size="14.00">ILC</text>
</g>
<!-- 28&#45;&gt;46 -->
<g id="edge76" class="edge">
<title>28&#45;&gt;46</title>
<path fill="none" stroke="black" d="M1340.33,-184.59C1331.48,-181.68 1321.35,-178.39 1312.1,-175.5 1285.43,-167.16 1278.03,-167.29 1251.85,-157.5 1235.97,-151.56 1233.55,-145.88 1217.1,-141.75 1214.22,-141.03 871.96,-118.71 739.57,-110.1"/>
<polygon fill="black" stroke="black" points="740.12,-106.56 729.91,-109.4 739.67,-113.54 740.12,-106.56"/>
<text text-anchor="middle" x="1264.23" y="-144.2" font-family="Times New Roman,serif" font-size="14.00">Treg</text>
</g>
<!-- 29 -->
<g id="node30" class="node">
<title>29</title>
<ellipse fill="none" stroke="black" cx="1326.1" cy="-281.25" rx="31.1" ry="18"/>
<text text-anchor="middle" x="1326.1" y="-275.82" font-family="Times New Roman,serif" font-size="14.00">IL&#45;22</text>
</g>
<!-- 30 -->
<g id="node31" class="node">
<title>30</title>
<ellipse fill="none" stroke="black" cx="319.1" cy="-369" rx="31.1" ry="18"/>
<text text-anchor="middle" x="319.1" y="-363.57" font-family="Times New Roman,serif" font-size="14.00">IL&#45;27</text>
</g>
<!-- 30&#45;&gt;1 -->
<g id="edge13" class="edge">
<title>30&#45;&gt;1</title>
<path fill="none" stroke="black" d="M311.2,-351.47C305.36,-339.25 297.29,-322.37 290.58,-308.34"/>
<polygon fill="black" stroke="black" points="293.46,-307.24 285.99,-299.73 287.14,-310.26 293.46,-307.24"/>
<text text-anchor="middle" x="319.6" y="-319.7" font-family="Times New Roman,serif" font-size="14.00">cDC2</text>
</g>
<!-- 31 -->
<g id="node32" class="node">
<title>31</title>
<ellipse fill="none" stroke="black" cx="881.1" cy="-193.5" rx="27" ry="18"/>
<text text-anchor="middle" x="881.1" y="-188.07" font-family="Times New Roman,serif" font-size="14.00">IL&#45;3</text>
</g>
<!-- 31&#45;&gt;42 -->
<g id="edge44" class="edge">
<title>31&#45;&gt;42</title>
<path fill="none" stroke="black" d="M891.68,-176.53C900.27,-164.93 913.45,-149.89 928.85,-141.75 974.3,-117.74 993.69,-137.91 1043.1,-123.75 1045.26,-123.13 1047.45,-122.43 1049.64,-121.67"/>
<polygon fill="black" stroke="black" points="1050.67,-124.64 1058.76,-117.8 1048.17,-118.1 1050.67,-124.64"/>
<text text-anchor="middle" x="954.23" y="-144.2" font-family="Times New Roman,serif" font-size="14.00">Mast cell</text>
</g>
<!-- 31&#45;&gt;46 -->
<g id="edge57" class="edge">
<title>31&#45;&gt;46</title>
<path fill="none" stroke="black" d="M855.83,-186.89C832.58,-181.21 797.51,-171.28 769.1,-157.5 757.96,-152.09 756.52,-148.45 746.1,-141.75 738.14,-136.63 729.45,-131.27 721.28,-126.32"/>
<polygon fill="black" stroke="black" points="723.37,-122.9 713,-120.75 719.77,-128.9 723.37,-122.9"/>
<text text-anchor="middle" x="797.6" y="-144.2" font-family="Times New Roman,serif" font-size="14.00">Monocyte</text>
</g>
<!-- 45 -->
<g id="node46" class="node">
<title>45</title>
<ellipse fill="none" stroke="black" cx="729.1" cy="-456.75" rx="28.11" ry="18"/>
<text text-anchor="middle" x="729.1" y="-451.32" font-family="Times New Roman,serif" font-size="14.00">SCF</text>
</g>
<!-- 32&#45;&gt;45 -->
<g id="edge40" class="edge">
<title>32&#45;&gt;45</title>
<path fill="none" stroke="black" d="M768.66,-526.97C761.56,-514.55 751.72,-497.32 743.62,-483.16"/>
<polygon fill="black" stroke="black" points="746.36,-481.89 738.36,-474.94 740.28,-485.36 746.36,-481.89"/>
<text text-anchor="middle" x="771.23" y="-495.2" font-family="Times New Roman,serif" font-size="14.00">LEC</text>
</g>
<!-- 33 -->
<g id="node34" class="node">
<title>33</title>
<ellipse fill="none" stroke="black" cx="1001.1" cy="-193.5" rx="31.1" ry="18"/>
<text text-anchor="middle" x="1001.1" y="-188.07" font-family="Times New Roman,serif" font-size="14.00">IL&#45;33</text>
</g>
<!-- 33&#45;&gt;42 -->
<g id="edge58" class="edge">
<title>33&#45;&gt;42</title>
<path fill="none" stroke="black" d="M1026.08,-182.38C1037.94,-176.55 1051.58,-168.23 1061.1,-157.5 1067.04,-150.81 1071.57,-142.26 1074.93,-134.1"/>
<polygon fill="black" stroke="black" points="1078.56,-135.38 1078.7,-124.78 1071.98,-132.98 1078.56,-135.38"/>
<text text-anchor="middle" x="1099.6" y="-144.2" font-family="Times New Roman,serif" font-size="14.00">Monocyte</text>
</g>
<!-- 33&#45;&gt;46 -->
<g id="edge64" class="edge">
<title>33&#45;&gt;46</title>
<path fill="none" stroke="black" d="M998.16,-175.14C995.29,-163.8 989.73,-149.67 979.1,-141.75 942.53,-114.48 814.45,-108.24 740.97,-106.95"/>
<polygon fill="black" stroke="black" points="741.16,-103.44 731.11,-106.79 741.06,-110.44 741.16,-103.44"/>
<text text-anchor="middle" x="1021.35" y="-144.2" font-family="Times New Roman,serif" font-size="14.00">Neutrophil</text>
</g>
<!-- 34 -->
<g id="node35" class="node">
<title>34</title>
<ellipse fill="none" stroke="black" cx="1274.1" cy="-369" rx="36.09" ry="18"/>
<text text-anchor="middle" x="1274.1" y="-363.57" font-family="Times New Roman,serif" font-size="14.00">IL&#45;36α</text>
</g>
<!-- 34&#45;&gt;26 -->
<g id="edge8" class="edge">
<title>34&#45;&gt;26</title>
<path fill="none" stroke="black" d="M1238.55,-364.88C1202.82,-360.82 1146.71,-351.86 1101.6,-333 1101.27,-332.86 1076.06,-315.9 1054.86,-301.63"/>
<polygon fill="black" stroke="black" points="1057.06,-298.21 1046.81,-295.53 1053.15,-304.02 1057.06,-298.21"/>
<text text-anchor="middle" x="1167.35" y="-319.7" font-family="Times New Roman,serif" font-size="14.00">cDC1,cDC2,Monocyte</text>
</g>
<!-- 34&#45;&gt;27 -->
<g id="edge17" class="edge">
<title>34&#45;&gt;27</title>
<path fill="none" stroke="black" d="M1264.44,-351.36C1257.01,-340.05 1245.73,-325.66 1232.1,-317.25 1201.83,-298.56 1181.82,-321.56 1154.1,-299.25 1127.39,-277.74 1140.65,-257.68 1121.1,-229.5 1118.31,-225.48 1115.05,-221.48 1111.67,-217.72"/>
<polygon fill="black" stroke="black" points="1114.65,-215.72 1105.21,-210.9 1109.58,-220.55 1114.65,-215.72"/>
<text text-anchor="middle" x="1220.1" y="-275.82" font-family="Times New Roman,serif" font-size="14.00">Other,eTAC,Neutrophil</text>
</g>
<!-- 34&#45;&gt;28 -->
<g id="edge34" class="edge">
<title>34&#45;&gt;28</title>
<path fill="none" stroke="black" d="M1301.45,-356.99C1324.04,-346.15 1354.25,-327.14 1366.1,-299.25 1376.52,-274.73 1374.36,-243.98 1370.61,-222.15"/>
<polygon fill="black" stroke="black" points="1373.91,-221.78 1368.56,-212.63 1367.04,-223.12 1373.91,-221.78"/>
<text text-anchor="middle" x="1384.35" y="-275.82" font-family="Times New Roman,serif" font-size="14.00">ILC</text>
</g>
<!-- 34&#45;&gt;29 -->
<g id="edge32" class="edge">
<title>34&#45;&gt;29</title>
<path fill="none" stroke="black" d="M1284.13,-351.47C1291.61,-339.13 1301.97,-322.04 1310.53,-307.93"/>
<polygon fill="black" stroke="black" points="1313.92,-310.1 1316.11,-299.73 1307.93,-306.47 1313.92,-310.1"/>
<text text-anchor="middle" x="1315.35" y="-319.7" font-family="Times New Roman,serif" font-size="14.00">ILC</text>
</g>
<!-- 34&#45;&gt;43 -->
<g id="edge35" class="edge">
<title>34&#45;&gt;43</title>
<path fill="none" stroke="black" d="M1238.57,-365.25C1194.29,-361.18 1116.64,-351.9 1052.6,-333 1024.75,-324.78 994.8,-311.33 972.52,-300.34"/>
<polygon fill="black" stroke="black" points="974.36,-296.84 963.86,-295.49 971.22,-303.1 974.36,-296.84"/>
<text text-anchor="middle" x="1064.35" y="-319.7" font-family="Times New Roman,serif" font-size="14.00">ILC</text>
</g>
<!-- 34&#45;&gt;51 -->
<g id="edge33" class="edge">
<title>34&#45;&gt;51</title>
<path fill="none" stroke="black" d="M1308.29,-362.66C1335.32,-357.54 1373.47,-348.29 1404.1,-333 1412.46,-328.83 1429.17,-315.74 1443.55,-303.9"/>
<polygon fill="black" stroke="black" points="1445.22,-306.23 1450.67,-297.15 1440.74,-300.85 1445.22,-306.23"/>
<text text-anchor="middle" x="1436.35" y="-319.7" font-family="Times New Roman,serif" font-size="14.00">ILC</text>
</g>
<!-- 35 -->
<g id="node36" class="node">
<title>35</title>
<ellipse fill="none" stroke="black" cx="595.1" cy="-828" rx="41.58" ry="18"/>
<text text-anchor="middle" x="595.1" y="-822.58" font-family="Times New Roman,serif" font-size="14.00">IL&#45;36Ra</text>
</g>
<!-- 35&#45;&gt;24 -->
<g id="edge20" class="edge">
<title>35&#45;&gt;24</title>
<path fill="none" stroke="black" d="M593.69,-809.65C592.75,-798.14 591.49,-782.78 590.41,-769.53"/>
<polygon fill="black" stroke="black" points="593.82,-769.26 589.52,-759.58 586.84,-769.83 593.82,-769.26"/>
<text text-anchor="middle" x="610.35" y="-778.7" font-family="Times New Roman,serif" font-size="14.00">eTAC</text>
</g>
<!-- 36 -->
<g id="node37" class="node">
<title>36</title>
<ellipse fill="none" stroke="black" cx="395.1" cy="-369" rx="27" ry="18"/>
<text text-anchor="middle" x="395.1" y="-363.57" font-family="Times New Roman,serif" font-size="14.00">IL&#45;4</text>
</g>
<!-- 36&#45;&gt;1 -->
<g id="edge65" class="edge">
<title>36&#45;&gt;1</title>
<path fill="none" stroke="black" d="M380.97,-353.23C370.31,-342.54 355.02,-328.11 340.1,-317.25 330.41,-310.19 319.16,-303.46 308.93,-297.81"/>
<polygon fill="black" stroke="black" points="310.98,-294.4 300.51,-292.76 307.67,-300.57 310.98,-294.4"/>
<text text-anchor="middle" x="389.35" y="-319.7" font-family="Times New Roman,serif" font-size="14.00">Neutrophil</text>
</g>
<!-- 37 -->
<g id="node38" class="node">
<title>37</title>
<ellipse fill="none" stroke="black" cx="590.1" cy="-281.25" rx="27" ry="18"/>
<text text-anchor="middle" x="590.1" y="-275.82" font-family="Times New Roman,serif" font-size="14.00">IL&#45;6</text>
</g>
<!-- 37&#45;&gt;24 -->
<g id="edge21" class="edge">
<title>37&#45;&gt;24</title>
<path fill="none" stroke="black" d="M563.13,-283.35C539.29,-285.93 505.78,-293.82 489.1,-317.25 453.11,-367.82 507.1,-393.68 507.1,-455.75 507.1,-653.5 507.1,-653.5 507.1,-653.5 507.1,-683.56 533.73,-707.34 556.45,-722.16"/>
<polygon fill="black" stroke="black" points="554.19,-725.49 564.54,-727.76 557.87,-719.53 554.19,-725.49"/>
<text text-anchor="middle" x="524.35" y="-495.2" font-family="Times New Roman,serif" font-size="14.00">eTAC</text>
</g>
<!-- 38 -->
<g id="node39" class="node">
<title>38</title>
<ellipse fill="none" stroke="black" cx="1276.1" cy="-193.5" rx="27" ry="18"/>
<text text-anchor="middle" x="1276.1" y="-188.07" font-family="Times New Roman,serif" font-size="14.00">IL&#45;7</text>
</g>
<!-- 38&#45;&gt;39 -->
<g id="edge36" class="edge">
<title>38&#45;&gt;39</title>
<path fill="none" stroke="black" d="M1279.54,-175.15C1281.85,-163.52 1284.93,-147.97 1287.58,-134.63"/>
<polygon fill="black" stroke="black" points="1291.16,-135.57 1289.67,-125.08 1284.29,-134.21 1291.16,-135.57"/>
<text text-anchor="middle" x="1297.35" y="-144.2" font-family="Times New Roman,serif" font-size="14.00">ILC</text>
</g>
<!-- 38&#45;&gt;42 -->
<g id="edge37" class="edge">
<title>38&#45;&gt;42</title>
<path fill="none" stroke="black" d="M1252.73,-183.8C1236.14,-177.3 1213.54,-167.8 1194.6,-157.5 1183.56,-151.49 1182.23,-147.61 1171.1,-141.75 1154.75,-133.14 1135.8,-125.35 1119.68,-119.31"/>
<polygon fill="black" stroke="black" points="1121.14,-115.75 1110.55,-115.61 1118.74,-122.33 1121.14,-115.75"/>
<text text-anchor="middle" x="1205.35" y="-144.2" font-family="Times New Roman,serif" font-size="14.00">ILC</text>
</g>
<!-- 41 -->
<g id="node42" class="node">
<title>41</title>
<ellipse fill="none" stroke="black" cx="588.1" cy="-369" rx="39.09" ry="18"/>
<text text-anchor="middle" x="588.1" y="-363.57" font-family="Times New Roman,serif" font-size="14.00">M&#45;CSF</text>
</g>
<!-- 41&#45;&gt;37 -->
<g id="edge45" class="edge">
<title>41&#45;&gt;37</title>
<path fill="none" stroke="black" d="M588.51,-350.65C588.78,-339.14 589.14,-323.78 589.44,-310.53"/>
<polygon fill="black" stroke="black" points="592.97,-310.66 589.7,-300.58 585.97,-310.49 592.97,-310.66"/>
<text text-anchor="middle" x="615.23" y="-319.7" font-family="Times New Roman,serif" font-size="14.00">Mast cell</text>
</g>
<!-- 42&#45;&gt;3 -->
<g id="edge23" class="edge">
<title>42&#45;&gt;3</title>
<path fill="none" stroke="black" d="M1071.82,-88.62C1063.07,-76.12 1050.8,-58.58 1040.76,-44.23"/>
<polygon fill="black" stroke="black" points="1043.14,-42.54 1034.54,-36.35 1037.41,-46.55 1043.14,-42.54"/>
<text text-anchor="middle" x="1072.98" y="-56.45" font-family="Times New Roman,serif" font-size="14.00">FRC</text>
</g>
<!-- 44 -->
<g id="node45" class="node">
<title>44</title>
<ellipse fill="none" stroke="black" cx="128.1" cy="-915.75" rx="42.08" ry="18"/>
<text text-anchor="middle" x="128.1" y="-910.33" font-family="Times New Roman,serif" font-size="14.00">RANKL</text>
</g>
<!-- 44&#45;&gt;48 -->
<g id="edge46" class="edge">
<title>44&#45;&gt;48</title>
<path fill="none" stroke="black" d="M127.55,-897.32C127.44,-887.5 127.64,-875.04 128.85,-864 129.1,-861.74 129.43,-859.4 129.81,-857.06"/>
<polygon fill="black" stroke="black" points="133.41,-857.82 131.83,-847.34 126.54,-856.52 133.41,-857.82"/>
<text text-anchor="middle" x="154.23" y="-866.45" font-family="Times New Roman,serif" font-size="14.00">Mast cell</text>
</g>
<!-- 45&#45;&gt;47 -->
<g id="edge47" class="edge">
<title>45&#45;&gt;47</title>
<path fill="none" stroke="black" d="M731.03,-438.67C732.83,-428.27 736.28,-415.1 742.85,-405 746.37,-399.61 750.98,-394.65 755.89,-390.27"/>
<polygon fill="black" stroke="black" points="757.71,-392.48 763.27,-383.46 753.3,-387.05 757.71,-392.48"/>
<text text-anchor="middle" x="768.23" y="-407.45" font-family="Times New Roman,serif" font-size="14.00">Mast cell</text>
</g>
<!-- 46&#45;&gt;16 -->
<g id="edge48" class="edge">
<title>46&#45;&gt;16</title>
<path fill="none" stroke="black" d="M688.1,-87.4C688.1,-75.89 688.1,-60.53 688.1,-47.28"/>
<polygon fill="black" stroke="black" points="691.6,-47.33 688.1,-37.33 684.6,-47.33 691.6,-47.33"/>
<text text-anchor="middle" x="713.23" y="-56.45" font-family="Times New Roman,serif" font-size="14.00">Mast cell</text>
</g>
<!-- 47&#45;&gt;1 -->
<g id="edge67" class="edge">
<title>47&#45;&gt;1</title>
<path fill="none" stroke="black" d="M750.73,-364C700.68,-358.15 606.39,-346.51 526.6,-333 450.48,-320.11 362.06,-301.07 313.89,-290.35"/>
<polygon fill="black" stroke="black" points="314.92,-286.77 304.4,-288 313.39,-293.6 314.92,-286.77"/>
<text text-anchor="middle" x="556.35" y="-319.7" font-family="Times New Roman,serif" font-size="14.00">Neutrophil</text>
</g>
<!-- 47&#45;&gt;26 -->
<g id="edge59" class="edge">
<title>47&#45;&gt;26</title>
<path fill="none" stroke="black" d="M810.42,-355.36C833.1,-344 868.15,-327.58 900.1,-317.25 937.26,-305.24 948.85,-310.94 986.1,-299.25 988.1,-298.62 990.14,-297.93 992.18,-297.2"/>
<polygon fill="black" stroke="black" points="993.22,-300.16 1001.28,-293.27 990.69,-293.63 993.22,-300.16"/>
<text text-anchor="middle" x="928.6" y="-319.7" font-family="Times New Roman,serif" font-size="14.00">Monocyte</text>
</g>
<!-- 47&#45;&gt;27 -->
<g id="edge14" class="edge">
<title>47&#45;&gt;27</title>
<path fill="none" stroke="black" d="M781.9,-350.76C777.43,-327.81 773.59,-287.32 794.85,-263.25 868.89,-179.43 933.64,-242.47 1041.1,-211.5 1043.68,-210.76 1046.32,-209.94 1048.97,-209.08"/>
<polygon fill="black" stroke="black" points="1049.78,-212.15 1058.1,-205.59 1047.51,-205.53 1049.78,-212.15"/>
<text text-anchor="middle" x="842.73" y="-275.82" font-family="Times New Roman,serif" font-size="14.00">cDC2,Neutrophil</text>
</g>
<!-- 47&#45;&gt;37 -->
<g id="edge24" class="edge">
<title>47&#45;&gt;37</title>
<path fill="none" stroke="black" d="M759.26,-356.26C723.46,-340.59 660.17,-312.9 621.98,-296.2"/>
<polygon fill="black" stroke="black" points="623.95,-292.8 613.38,-292 621.14,-299.21 623.95,-292.8"/>
<text text-anchor="middle" x="719.98" y="-319.7" font-family="Times New Roman,serif" font-size="14.00">FRC</text>
</g>
<!-- 47&#45;&gt;43 -->
<g id="edge38" class="edge">
<title>47&#45;&gt;43</title>
<path fill="none" stroke="black" d="M796.13,-351.2C803.55,-340.11 814.59,-326.05 827.6,-317.25 849.79,-302.25 859.58,-307.34 885.1,-299.25 888.87,-298.06 892.79,-296.81 896.71,-295.56"/>
<polygon fill="black" stroke="black" points="897.55,-298.64 906.01,-292.26 895.42,-291.98 897.55,-298.64"/>
<text text-anchor="middle" x="839.35" y="-319.7" font-family="Times New Roman,serif" font-size="14.00">ILC</text>
</g>
<!-- 47&#45;&gt;47 -->
<g id="edge66" class="edge">
<title>47&#45;&gt;47</title>
<path fill="none" stroke="black" d="M819.15,-377.22C831.02,-377.4 840.7,-374.66 840.7,-369 840.7,-365.2 836.33,-362.72 829.86,-361.55"/>
<polygon fill="black" stroke="black" points="830.38,-358.01 820.15,-360.78 829.88,-364.99 830.38,-358.01"/>
<text text-anchor="middle" x="869.95" y="-363.57" font-family="Times New Roman,serif" font-size="14.00">Neutrophil</text>
</g>
<!-- 50 -->
<g id="node51" class="node">
<title>50</title>
<ellipse fill="none" stroke="black" cx="136.1" cy="-740.25" rx="44.08" ry="18"/>
<text text-anchor="middle" x="136.1" y="-734.83" font-family="Times New Roman,serif" font-size="14.00">TWEAK</text>
</g>
<!-- 48&#45;&gt;50 -->
<g id="edge49" class="edge">
<title>48&#45;&gt;50</title>
<path fill="none" stroke="black" d="M136.1,-809.65C136.1,-798.14 136.1,-782.78 136.1,-769.53"/>
<polygon fill="black" stroke="black" points="139.6,-769.58 136.1,-759.58 132.6,-769.58 139.6,-769.58"/>
<text text-anchor="middle" x="161.23" y="-778.7" font-family="Times New Roman,serif" font-size="14.00">Mast cell</text>
</g>
<!-- 49&#45;&gt;1 -->
<g id="edge74" class="edge">
<title>49&#45;&gt;1</title>
<path fill="none" stroke="black" d="M174.1,-351.05C178.68,-340.18 185.95,-326.43 196.1,-317.25 209.17,-305.44 226.81,-297.22 242.38,-291.72"/>
<polygon fill="black" stroke="black" points="243.33,-294.77 251.75,-288.34 241.16,-288.11 243.33,-294.77"/>
<text text-anchor="middle" x="209.6" y="-319.7" font-family="Times New Roman,serif" font-size="14.00">pDC</text>
</g>
</g>
</svg>
